<mxfile host="Electron" agent="Mozilla/5.0 (Windows NT 10.0; Win64; x64) AppleWebKit/537.36 (KHTML, like Gecko) draw.io/27.0.5 Chrome/134.0.6998.205 Electron/35.3.0 Safari/537.36" version="27.0.5">
  <diagram name="第 1 页" id="2RyouYgdLO7fCpm1F02p">
    <mxGraphModel dx="775" dy="1710" grid="1" gridSize="10" guides="1" tooltips="1" connect="1" arrows="1" fold="1" page="1" pageScale="1" pageWidth="827" pageHeight="1169" math="0" shadow="0">
      <root>
        <mxCell id="0" />
        <mxCell id="1" parent="0" />
        <mxCell id="P7CDAwDoFiBA_nEvKEwN-1" value="Data" style="shape=table;startSize=30;container=1;collapsible=0;childLayout=tableLayout;fixedRows=1;rowLines=0;fontStyle=0;strokeColor=default;fontSize=16;movable=1;resizable=1;rotatable=1;deletable=1;editable=1;locked=0;connectable=1;align=center;swimlaneFillColor=default;" vertex="1" parent="1">
          <mxGeometry x="170" y="-410" width="520" height="150" as="geometry" />
        </mxCell>
        <mxCell id="P7CDAwDoFiBA_nEvKEwN-2" value="" style="shape=tableRow;horizontal=0;startSize=0;swimlaneHead=0;swimlaneBody=0;top=0;left=0;bottom=0;right=0;collapsible=0;dropTarget=0;fillColor=none;points=[[0,0.5],[1,0.5]];portConstraint=eastwest;strokeColor=default;fontSize=16;movable=1;resizable=1;rotatable=1;deletable=1;editable=1;locked=0;connectable=1;align=center;swimlaneFillColor=default;" vertex="1" parent="P7CDAwDoFiBA_nEvKEwN-1">
          <mxGeometry y="30" width="520" height="30" as="geometry" />
        </mxCell>
        <mxCell id="P7CDAwDoFiBA_nEvKEwN-3" value="idx" style="shape=partialRectangle;html=1;whiteSpace=wrap;connectable=1;fillColor=none;top=1;left=1;bottom=1;right=1;overflow=hidden;pointerEvents=1;strokeColor=default;fontSize=16;movable=1;resizable=1;rotatable=1;deletable=1;editable=1;locked=0;align=center;swimlaneFillColor=default;" vertex="1" parent="P7CDAwDoFiBA_nEvKEwN-2">
          <mxGeometry width="46" height="30" as="geometry">
            <mxRectangle width="46" height="30" as="alternateBounds" />
          </mxGeometry>
        </mxCell>
        <mxCell id="P7CDAwDoFiBA_nEvKEwN-4" value="vec" style="shape=partialRectangle;html=1;whiteSpace=wrap;connectable=0;fillColor=none;top=1;left=1;bottom=1;right=1;align=left;spacingLeft=6;overflow=hidden;strokeColor=default;fontSize=16;swimlaneFillColor=default;" vertex="1" parent="P7CDAwDoFiBA_nEvKEwN-2">
          <mxGeometry x="46" width="47" height="30" as="geometry">
            <mxRectangle width="47" height="30" as="alternateBounds" />
          </mxGeometry>
        </mxCell>
        <mxCell id="P7CDAwDoFiBA_nEvKEwN-27" value="cid&amp;nbsp;&amp;nbsp;" style="shape=partialRectangle;html=1;whiteSpace=wrap;connectable=0;fillColor=none;top=1;left=1;bottom=1;right=1;align=right;spacingLeft=6;overflow=hidden;strokeColor=default;fontSize=16;swimlaneFillColor=default;" vertex="1" parent="P7CDAwDoFiBA_nEvKEwN-2">
          <mxGeometry x="93" width="46" height="30" as="geometry">
            <mxRectangle width="46" height="30" as="alternateBounds" />
          </mxGeometry>
        </mxCell>
        <mxCell id="P7CDAwDoFiBA_nEvKEwN-30" value="msg_info" style="shape=partialRectangle;html=1;whiteSpace=wrap;connectable=0;fillColor=none;top=1;left=1;bottom=1;right=1;align=left;spacingLeft=6;overflow=hidden;strokeColor=default;fontSize=16;swimlaneFillColor=default;" vertex="1" parent="P7CDAwDoFiBA_nEvKEwN-2">
          <mxGeometry x="139" width="92" height="30" as="geometry">
            <mxRectangle width="92" height="30" as="alternateBounds" />
          </mxGeometry>
        </mxCell>
        <mxCell id="P7CDAwDoFiBA_nEvKEwN-33" value="extend_msg" style="shape=partialRectangle;html=1;whiteSpace=wrap;connectable=0;fillColor=none;top=1;left=1;bottom=1;right=1;align=left;spacingLeft=6;overflow=hidden;strokeColor=default;fontSize=16;swimlaneFillColor=default;shadow=0;" vertex="1" parent="P7CDAwDoFiBA_nEvKEwN-2">
          <mxGeometry x="231" width="289" height="30" as="geometry">
            <mxRectangle width="289" height="30" as="alternateBounds" />
          </mxGeometry>
        </mxCell>
        <mxCell id="P7CDAwDoFiBA_nEvKEwN-5" value="" style="shape=tableRow;horizontal=0;startSize=0;swimlaneHead=0;swimlaneBody=0;top=0;left=0;bottom=0;right=0;collapsible=0;dropTarget=0;fillColor=none;points=[[0,0.5],[1,0.5]];portConstraint=eastwest;strokeColor=default;fontSize=16;align=center;swimlaneFillColor=default;" vertex="1" parent="P7CDAwDoFiBA_nEvKEwN-1">
          <mxGeometry y="60" width="520" height="30" as="geometry" />
        </mxCell>
        <mxCell id="P7CDAwDoFiBA_nEvKEwN-6" value="1" style="shape=partialRectangle;html=1;whiteSpace=wrap;connectable=0;fillColor=none;top=1;left=1;bottom=1;right=1;overflow=hidden;strokeColor=default;fontSize=16;align=center;swimlaneFillColor=default;" vertex="1" parent="P7CDAwDoFiBA_nEvKEwN-5">
          <mxGeometry width="46" height="30" as="geometry">
            <mxRectangle width="46" height="30" as="alternateBounds" />
          </mxGeometry>
        </mxCell>
        <mxCell id="P7CDAwDoFiBA_nEvKEwN-7" value="" style="shape=partialRectangle;html=1;whiteSpace=wrap;connectable=0;fillColor=none;top=1;left=1;bottom=1;right=1;align=center;spacingLeft=6;overflow=hidden;strokeColor=default;fontSize=16;swimlaneFillColor=default;" vertex="1" parent="P7CDAwDoFiBA_nEvKEwN-5">
          <mxGeometry x="46" width="47" height="30" as="geometry">
            <mxRectangle width="47" height="30" as="alternateBounds" />
          </mxGeometry>
        </mxCell>
        <mxCell id="P7CDAwDoFiBA_nEvKEwN-28" value="" style="shape=partialRectangle;html=1;whiteSpace=wrap;connectable=0;fillColor=none;top=1;left=1;bottom=1;right=1;align=center;spacingLeft=6;overflow=hidden;strokeColor=default;fontSize=16;swimlaneFillColor=default;" vertex="1" parent="P7CDAwDoFiBA_nEvKEwN-5">
          <mxGeometry x="93" width="46" height="30" as="geometry">
            <mxRectangle width="46" height="30" as="alternateBounds" />
          </mxGeometry>
        </mxCell>
        <mxCell id="P7CDAwDoFiBA_nEvKEwN-31" value="" style="shape=partialRectangle;html=1;whiteSpace=wrap;connectable=0;fillColor=none;top=1;left=1;bottom=1;right=1;align=center;spacingLeft=6;overflow=hidden;strokeColor=default;fontSize=16;swimlaneFillColor=default;" vertex="1" parent="P7CDAwDoFiBA_nEvKEwN-5">
          <mxGeometry x="139" width="92" height="30" as="geometry">
            <mxRectangle width="92" height="30" as="alternateBounds" />
          </mxGeometry>
        </mxCell>
        <mxCell id="P7CDAwDoFiBA_nEvKEwN-34" value="" style="shape=partialRectangle;html=1;whiteSpace=wrap;connectable=0;fillColor=none;top=1;left=1;bottom=1;right=1;align=center;spacingLeft=6;overflow=hidden;strokeColor=default;fontSize=16;swimlaneFillColor=default;" vertex="1" parent="P7CDAwDoFiBA_nEvKEwN-5">
          <mxGeometry x="231" width="289" height="30" as="geometry">
            <mxRectangle width="289" height="30" as="alternateBounds" />
          </mxGeometry>
        </mxCell>
        <mxCell id="P7CDAwDoFiBA_nEvKEwN-8" value="" style="shape=tableRow;horizontal=0;startSize=0;swimlaneHead=0;swimlaneBody=0;top=0;left=0;bottom=0;right=0;collapsible=0;dropTarget=0;fillColor=none;points=[[0,0.5],[1,0.5]];portConstraint=eastwest;strokeColor=default;fontSize=16;align=center;swimlaneFillColor=default;" vertex="1" parent="P7CDAwDoFiBA_nEvKEwN-1">
          <mxGeometry y="90" width="520" height="30" as="geometry" />
        </mxCell>
        <mxCell id="P7CDAwDoFiBA_nEvKEwN-9" value="2" style="shape=partialRectangle;html=1;whiteSpace=wrap;connectable=0;fillColor=none;top=1;left=1;bottom=1;right=1;overflow=hidden;strokeColor=default;fontSize=16;align=center;swimlaneFillColor=default;" vertex="1" parent="P7CDAwDoFiBA_nEvKEwN-8">
          <mxGeometry width="46" height="30" as="geometry">
            <mxRectangle width="46" height="30" as="alternateBounds" />
          </mxGeometry>
        </mxCell>
        <mxCell id="P7CDAwDoFiBA_nEvKEwN-10" value="" style="shape=partialRectangle;html=1;whiteSpace=wrap;connectable=0;fillColor=none;top=1;left=1;bottom=1;right=1;align=center;spacingLeft=6;overflow=hidden;strokeColor=default;fontSize=16;swimlaneFillColor=default;" vertex="1" parent="P7CDAwDoFiBA_nEvKEwN-8">
          <mxGeometry x="46" width="47" height="30" as="geometry">
            <mxRectangle width="47" height="30" as="alternateBounds" />
          </mxGeometry>
        </mxCell>
        <mxCell id="P7CDAwDoFiBA_nEvKEwN-29" value="" style="shape=partialRectangle;html=1;whiteSpace=wrap;connectable=0;fillColor=none;top=1;left=1;bottom=1;right=1;align=center;spacingLeft=6;overflow=hidden;strokeColor=default;fontSize=16;swimlaneFillColor=default;" vertex="1" parent="P7CDAwDoFiBA_nEvKEwN-8">
          <mxGeometry x="93" width="46" height="30" as="geometry">
            <mxRectangle width="46" height="30" as="alternateBounds" />
          </mxGeometry>
        </mxCell>
        <mxCell id="P7CDAwDoFiBA_nEvKEwN-32" value="" style="shape=partialRectangle;html=1;whiteSpace=wrap;connectable=0;fillColor=none;top=1;left=1;bottom=1;right=1;align=center;spacingLeft=6;overflow=hidden;strokeColor=default;fontSize=16;swimlaneFillColor=default;" vertex="1" parent="P7CDAwDoFiBA_nEvKEwN-8">
          <mxGeometry x="139" width="92" height="30" as="geometry">
            <mxRectangle width="92" height="30" as="alternateBounds" />
          </mxGeometry>
        </mxCell>
        <mxCell id="P7CDAwDoFiBA_nEvKEwN-35" value="" style="shape=partialRectangle;html=1;whiteSpace=wrap;connectable=0;fillColor=none;top=1;left=1;bottom=1;right=1;align=center;spacingLeft=6;overflow=hidden;strokeColor=default;fontSize=16;swimlaneFillColor=default;" vertex="1" parent="P7CDAwDoFiBA_nEvKEwN-8">
          <mxGeometry x="231" width="289" height="30" as="geometry">
            <mxRectangle width="289" height="30" as="alternateBounds" />
          </mxGeometry>
        </mxCell>
        <mxCell id="P7CDAwDoFiBA_nEvKEwN-36" style="shape=tableRow;horizontal=0;startSize=0;swimlaneHead=0;swimlaneBody=0;top=0;left=0;bottom=0;right=0;collapsible=0;dropTarget=0;fillColor=none;points=[[0,0.5],[1,0.5]];portConstraint=eastwest;strokeColor=default;fontSize=16;align=center;swimlaneFillColor=default;" vertex="1" parent="P7CDAwDoFiBA_nEvKEwN-1">
          <mxGeometry y="120" width="520" height="30" as="geometry" />
        </mxCell>
        <mxCell id="P7CDAwDoFiBA_nEvKEwN-37" value="···" style="shape=partialRectangle;html=1;whiteSpace=wrap;connectable=0;fillColor=none;top=1;left=1;bottom=1;right=1;overflow=hidden;strokeColor=default;fontSize=16;align=center;swimlaneFillColor=default;" vertex="1" parent="P7CDAwDoFiBA_nEvKEwN-36">
          <mxGeometry width="46" height="30" as="geometry">
            <mxRectangle width="46" height="30" as="alternateBounds" />
          </mxGeometry>
        </mxCell>
        <mxCell id="P7CDAwDoFiBA_nEvKEwN-38" value="···" style="shape=partialRectangle;html=1;whiteSpace=wrap;connectable=0;fillColor=none;top=1;left=1;bottom=1;right=1;align=center;spacingLeft=6;overflow=hidden;strokeColor=default;fontSize=16;swimlaneFillColor=default;" vertex="1" parent="P7CDAwDoFiBA_nEvKEwN-36">
          <mxGeometry x="46" width="47" height="30" as="geometry">
            <mxRectangle width="47" height="30" as="alternateBounds" />
          </mxGeometry>
        </mxCell>
        <mxCell id="P7CDAwDoFiBA_nEvKEwN-39" value="···" style="shape=partialRectangle;html=1;whiteSpace=wrap;connectable=0;fillColor=none;top=1;left=1;bottom=1;right=1;align=center;spacingLeft=6;overflow=hidden;strokeColor=default;fontSize=16;swimlaneFillColor=default;" vertex="1" parent="P7CDAwDoFiBA_nEvKEwN-36">
          <mxGeometry x="93" width="46" height="30" as="geometry">
            <mxRectangle width="46" height="30" as="alternateBounds" />
          </mxGeometry>
        </mxCell>
        <mxCell id="P7CDAwDoFiBA_nEvKEwN-40" value="···" style="shape=partialRectangle;html=1;whiteSpace=wrap;connectable=0;fillColor=none;top=1;left=1;bottom=1;right=1;align=center;spacingLeft=6;overflow=hidden;strokeColor=default;fontSize=16;swimlaneFillColor=default;" vertex="1" parent="P7CDAwDoFiBA_nEvKEwN-36">
          <mxGeometry x="139" width="92" height="30" as="geometry">
            <mxRectangle width="92" height="30" as="alternateBounds" />
          </mxGeometry>
        </mxCell>
        <mxCell id="P7CDAwDoFiBA_nEvKEwN-41" value="···" style="shape=partialRectangle;html=1;whiteSpace=wrap;connectable=0;fillColor=none;top=1;left=1;bottom=1;right=1;align=center;spacingLeft=6;overflow=hidden;strokeColor=default;fontSize=16;swimlaneFillColor=default;" vertex="1" parent="P7CDAwDoFiBA_nEvKEwN-36">
          <mxGeometry x="231" width="289" height="30" as="geometry">
            <mxRectangle width="289" height="30" as="alternateBounds" />
          </mxGeometry>
        </mxCell>
        <mxCell id="P7CDAwDoFiBA_nEvKEwN-143" style="edgeStyle=orthogonalEdgeStyle;rounded=0;orthogonalLoop=1;jettySize=auto;html=1;exitX=1;exitY=0.25;exitDx=0;exitDy=0;entryX=0.244;entryY=0.954;entryDx=0;entryDy=0;endArrow=none;startFill=0;entryPerimeter=0;" edge="1" parent="1" target="P7CDAwDoFiBA_nEvKEwN-121">
          <mxGeometry relative="1" as="geometry">
            <mxPoint x="140" y="-457.04" as="sourcePoint" />
            <mxPoint x="501.15000000000015" y="-470.00000000000006" as="targetPoint" />
            <Array as="points">
              <mxPoint x="314" y="-457" />
              <mxPoint x="523" y="-456" />
            </Array>
          </mxGeometry>
        </mxCell>
        <mxCell id="P7CDAwDoFiBA_nEvKEwN-97" value="" style="ellipse;whiteSpace=wrap;html=1;aspect=fixed;movable=1;resizable=1;rotatable=1;deletable=1;editable=1;locked=0;connectable=1;" vertex="1" parent="1">
          <mxGeometry x="254" y="-560" width="120" height="120" as="geometry" />
        </mxCell>
        <mxCell id="P7CDAwDoFiBA_nEvKEwN-109" value="" style="endArrow=none;html=1;rounded=0;entryX=1;entryY=1;entryDx=0;entryDy=0;exitX=0;exitY=0;exitDx=0;exitDy=0;" edge="1" parent="1" source="P7CDAwDoFiBA_nEvKEwN-97" target="P7CDAwDoFiBA_nEvKEwN-97">
          <mxGeometry width="50" height="50" relative="1" as="geometry">
            <mxPoint x="294" y="-540" as="sourcePoint" />
            <mxPoint x="344" y="-590" as="targetPoint" />
          </mxGeometry>
        </mxCell>
        <mxCell id="P7CDAwDoFiBA_nEvKEwN-108" value="" style="endArrow=none;html=1;rounded=0;entryX=1;entryY=0;entryDx=0;entryDy=0;exitX=0;exitY=1;exitDx=0;exitDy=0;" edge="1" parent="1" source="P7CDAwDoFiBA_nEvKEwN-97" target="P7CDAwDoFiBA_nEvKEwN-97">
          <mxGeometry width="50" height="50" relative="1" as="geometry">
            <mxPoint x="344" y="-520" as="sourcePoint" />
            <mxPoint x="394" y="-570" as="targetPoint" />
          </mxGeometry>
        </mxCell>
        <mxCell id="P7CDAwDoFiBA_nEvKEwN-107" value="" style="endArrow=none;html=1;rounded=0;entryX=1;entryY=0.5;entryDx=0;entryDy=0;exitX=0;exitY=0.5;exitDx=0;exitDy=0;" edge="1" parent="1" source="P7CDAwDoFiBA_nEvKEwN-97" target="P7CDAwDoFiBA_nEvKEwN-97">
          <mxGeometry width="50" height="50" relative="1" as="geometry">
            <mxPoint x="214" y="-490" as="sourcePoint" />
            <mxPoint x="264" y="-540" as="targetPoint" />
          </mxGeometry>
        </mxCell>
        <mxCell id="P7CDAwDoFiBA_nEvKEwN-105" value="" style="endArrow=none;html=1;rounded=0;entryX=0.5;entryY=0;entryDx=0;entryDy=0;exitX=0.5;exitY=1;exitDx=0;exitDy=0;" edge="1" parent="1" source="P7CDAwDoFiBA_nEvKEwN-97" target="P7CDAwDoFiBA_nEvKEwN-97">
          <mxGeometry width="50" height="50" relative="1" as="geometry">
            <mxPoint x="319" y="-590" as="sourcePoint" />
            <mxPoint x="369" y="-640" as="targetPoint" />
          </mxGeometry>
        </mxCell>
        <mxCell id="P7CDAwDoFiBA_nEvKEwN-98" value="" style="ellipse;whiteSpace=wrap;html=1;aspect=fixed;" vertex="1" parent="1">
          <mxGeometry x="269" y="-545" width="90" height="90" as="geometry" />
        </mxCell>
        <mxCell id="P7CDAwDoFiBA_nEvKEwN-99" value="" style="verticalLabelPosition=bottom;html=1;verticalAlign=top;strokeWidth=1;shape=mxgraph.lean_mapping.physical_pull;pointerEvents=1;aspect=fixed;" vertex="1" parent="1">
          <mxGeometry x="284" y="-530" width="60" height="60" as="geometry" />
        </mxCell>
        <mxCell id="P7CDAwDoFiBA_nEvKEwN-103" value="reply_handler_status" style="rounded=1;whiteSpace=wrap;html=1;" vertex="1" parent="1">
          <mxGeometry x="466" y="-240" width="160" height="40" as="geometry" />
        </mxCell>
        <mxCell id="P7CDAwDoFiBA_nEvKEwN-104" value="req_handler_status" style="rounded=1;whiteSpace=wrap;html=1;" vertex="1" parent="1">
          <mxGeometry x="240" y="-240" width="160" height="40" as="geometry" />
        </mxCell>
        <mxCell id="P7CDAwDoFiBA_nEvKEwN-116" value="" style="ellipse;whiteSpace=wrap;html=1;aspect=fixed;movable=1;resizable=1;rotatable=1;deletable=1;editable=1;locked=0;connectable=1;" vertex="1" parent="1">
          <mxGeometry x="486" y="-560" width="120" height="120" as="geometry" />
        </mxCell>
        <mxCell id="P7CDAwDoFiBA_nEvKEwN-117" value="" style="endArrow=none;html=1;rounded=0;entryX=1;entryY=1;entryDx=0;entryDy=0;exitX=0;exitY=0;exitDx=0;exitDy=0;" edge="1" parent="1" source="P7CDAwDoFiBA_nEvKEwN-116" target="P7CDAwDoFiBA_nEvKEwN-116">
          <mxGeometry width="50" height="50" relative="1" as="geometry">
            <mxPoint x="526" y="-540" as="sourcePoint" />
            <mxPoint x="576" y="-590" as="targetPoint" />
          </mxGeometry>
        </mxCell>
        <mxCell id="P7CDAwDoFiBA_nEvKEwN-118" value="" style="endArrow=none;html=1;rounded=0;entryX=1;entryY=0;entryDx=0;entryDy=0;exitX=0;exitY=1;exitDx=0;exitDy=0;" edge="1" parent="1" source="P7CDAwDoFiBA_nEvKEwN-116" target="P7CDAwDoFiBA_nEvKEwN-116">
          <mxGeometry width="50" height="50" relative="1" as="geometry">
            <mxPoint x="576" y="-520" as="sourcePoint" />
            <mxPoint x="626" y="-570" as="targetPoint" />
          </mxGeometry>
        </mxCell>
        <mxCell id="P7CDAwDoFiBA_nEvKEwN-119" value="" style="endArrow=none;html=1;rounded=0;entryX=1;entryY=0.5;entryDx=0;entryDy=0;exitX=0;exitY=0.5;exitDx=0;exitDy=0;" edge="1" parent="1" source="P7CDAwDoFiBA_nEvKEwN-116" target="P7CDAwDoFiBA_nEvKEwN-116">
          <mxGeometry width="50" height="50" relative="1" as="geometry">
            <mxPoint x="446" y="-490" as="sourcePoint" />
            <mxPoint x="496" y="-540" as="targetPoint" />
          </mxGeometry>
        </mxCell>
        <mxCell id="P7CDAwDoFiBA_nEvKEwN-120" value="" style="endArrow=none;html=1;rounded=0;entryX=0.5;entryY=0;entryDx=0;entryDy=0;exitX=0.5;exitY=1;exitDx=0;exitDy=0;" edge="1" parent="1" source="P7CDAwDoFiBA_nEvKEwN-116" target="P7CDAwDoFiBA_nEvKEwN-116">
          <mxGeometry width="50" height="50" relative="1" as="geometry">
            <mxPoint x="551" y="-590" as="sourcePoint" />
            <mxPoint x="601" y="-640" as="targetPoint" />
          </mxGeometry>
        </mxCell>
        <mxCell id="P7CDAwDoFiBA_nEvKEwN-121" value="" style="ellipse;whiteSpace=wrap;html=1;aspect=fixed;" vertex="1" parent="1">
          <mxGeometry x="501" y="-545" width="90" height="90" as="geometry" />
        </mxCell>
        <mxCell id="P7CDAwDoFiBA_nEvKEwN-122" value="" style="verticalLabelPosition=bottom;html=1;verticalAlign=top;strokeWidth=1;shape=mxgraph.lean_mapping.physical_pull;pointerEvents=1;aspect=fixed;rotation=-180;" vertex="1" parent="1">
          <mxGeometry x="516" y="-530" width="60" height="60" as="geometry" />
        </mxCell>
        <mxCell id="P7CDAwDoFiBA_nEvKEwN-135" style="edgeStyle=orthogonalEdgeStyle;rounded=0;orthogonalLoop=1;jettySize=auto;html=1;exitX=1;exitY=0.75;exitDx=0;exitDy=0;endArrow=none;startFill=0;dashed=1;dashPattern=8 8;" edge="1" parent="1" source="P7CDAwDoFiBA_nEvKEwN-133" target="P7CDAwDoFiBA_nEvKEwN-5">
          <mxGeometry relative="1" as="geometry" />
        </mxCell>
        <mxCell id="P7CDAwDoFiBA_nEvKEwN-133" value="Idx&lt;div&gt;allocator&lt;/div&gt;&lt;div&gt;&lt;br&gt;&lt;/div&gt;&lt;div&gt;&lt;br&gt;&lt;/div&gt;&lt;div&gt;&lt;br&gt;&lt;/div&gt;&lt;div&gt;&lt;br&gt;&lt;/div&gt;&lt;div&gt;&lt;br&gt;&lt;/div&gt;&lt;div&gt;&lt;br&gt;&lt;/div&gt;&lt;div&gt;&lt;br&gt;&lt;/div&gt;&lt;div&gt;&lt;br&gt;&lt;/div&gt;&lt;div&gt;&lt;br&gt;&lt;/div&gt;&lt;div&gt;&lt;br&gt;&lt;/div&gt;" style="rounded=1;whiteSpace=wrap;html=1;" vertex="1" parent="1">
          <mxGeometry x="80" y="-560" width="60" height="300" as="geometry" />
        </mxCell>
        <mxCell id="P7CDAwDoFiBA_nEvKEwN-134" style="edgeStyle=orthogonalEdgeStyle;rounded=0;orthogonalLoop=1;jettySize=auto;html=1;exitX=1;exitY=0.25;exitDx=0;exitDy=0;entryX=0.009;entryY=0.624;entryDx=0;entryDy=0;entryPerimeter=0;endArrow=none;startFill=0;" edge="1" parent="1" source="P7CDAwDoFiBA_nEvKEwN-133" target="P7CDAwDoFiBA_nEvKEwN-97">
          <mxGeometry relative="1" as="geometry" />
        </mxCell>
        <mxCell id="P7CDAwDoFiBA_nEvKEwN-136" style="edgeStyle=orthogonalEdgeStyle;rounded=0;orthogonalLoop=1;jettySize=auto;html=1;exitX=0.5;exitY=1;exitDx=0;exitDy=0;endArrow=none;startFill=0;dashed=1;dashPattern=1 4;" edge="1" parent="1">
          <mxGeometry relative="1" as="geometry">
            <mxPoint x="313.48" y="-439" as="sourcePoint" />
            <mxPoint x="314.48" y="-410" as="targetPoint" />
          </mxGeometry>
        </mxCell>
        <mxCell id="P7CDAwDoFiBA_nEvKEwN-138" value="req_idx_queue" style="text;strokeColor=none;align=center;fillColor=none;html=1;verticalAlign=middle;whiteSpace=wrap;rounded=0;" vertex="1" parent="1">
          <mxGeometry x="284" y="-610" width="60" height="30" as="geometry" />
        </mxCell>
        <mxCell id="P7CDAwDoFiBA_nEvKEwN-139" value="res_idx_queue" style="text;strokeColor=none;align=center;fillColor=none;html=1;verticalAlign=middle;whiteSpace=wrap;rounded=0;" vertex="1" parent="1">
          <mxGeometry x="516" y="-610" width="60" height="30" as="geometry" />
        </mxCell>
        <mxCell id="P7CDAwDoFiBA_nEvKEwN-140" style="edgeStyle=orthogonalEdgeStyle;rounded=0;orthogonalLoop=1;jettySize=auto;html=1;exitX=0.5;exitY=1;exitDx=0;exitDy=0;endArrow=none;startFill=0;dashed=1;dashPattern=1 4;" edge="1" parent="1">
          <mxGeometry relative="1" as="geometry">
            <mxPoint x="545.5" y="-440" as="sourcePoint" />
            <mxPoint x="546.5" y="-411" as="targetPoint" />
          </mxGeometry>
        </mxCell>
      </root>
    </mxGraphModel>
  </diagram>
</mxfile>
